<svg width="85" height="25" viewBox="0 0 85 25" fill="none" xmlns="http://www.w3.org/2000/svg">
<mask id="mask0_31238_1403" style="mask-type:alpha" maskUnits="userSpaceOnUse" x="0" y="-1" width="25" height="26">
<path d="M0 9.9598C0 4.45906 4.45924 -0.000183105 9.95999 -0.000183105H20.02C22.7703 -0.000183105 25 2.22943 25 4.97982V15.0398C25 20.5406 20.5408 24.9998 15.04 24.9998H4.97998C2.22961 24.9998 0 22.7701 0 20.0198V9.9598Z" fill="white"/>
</mask>
<g mask="url(#mask0_31238_1403)">
<path d="M0 9.99856C0 4.49447 4.46196 0.0325118 9.96605 0.0325118H20.0322C22.7842 0.0325118 25.0152 2.26348 25.0152 5.01555V15.0817C25.0152 20.5858 20.5533 25.0477 15.0492 25.0477H4.98301C2.23097 25.0477 0 22.8167 0 20.0647V9.99856Z" fill="#005456"/>
<path d="M0 9.99856C0 4.49447 4.46196 0.0325118 9.96605 0.0325118H20.0322C22.7842 0.0325118 25.0152 2.26348 25.0152 5.01555V15.0817C25.0152 20.5858 20.5533 25.0477 15.0492 25.0477H4.98301C2.23097 25.0477 0 22.8167 0 20.0647V9.99856Z" fill="#005456"/>
<path d="M19.369 0.248839L9.07059 14.3841C8.03692 15.8029 7.93772 17.6972 8.81751 19.2176C9.69824 20.7397 11.3945 21.6012 13.1445 21.4151L30.5182 19.5675C31.6048 22.1651 29.7071 25.1522 26.776 25.1537L5.48699 25.1638C2.37405 25.1653 0.429931 21.7982 1.98774 19.1029L12.641 0.671227C14.1134 -1.87614 17.6702 -2.01748 19.369 0.248839Z" fill="white"/>
<path d="M20.2805 8.03286L13.8495 16.3652L24.3048 14.9878L20.2805 8.03286Z" fill="white"/>
</g>
<path d="M64.8704 12.2884C64.9467 12.552 64.7372 12.8009 64.4627 12.8009H64.032C63.8226 12.8009 63.6457 12.6523 63.5802 12.4533C63.5018 12.2151 63.3962 11.9982 63.2635 11.8028C63.0724 11.5161 62.8388 11.2754 62.5627 11.0807C62.2902 10.8825 61.9876 10.7339 61.6549 10.6348C61.3222 10.5357 60.9753 10.4861 60.6143 10.4861C59.956 10.4861 59.3596 10.6525 58.8252 10.9852C58.2943 11.3179 57.8713 11.8081 57.5563 12.4558C57.2448 13.1035 57.0891 13.8981 57.0891 14.8395C57.0891 15.781 57.2448 16.5756 57.5563 17.2233C57.8713 17.871 58.2943 18.3612 58.8252 18.6939C59.3596 19.0266 59.956 19.193 60.6143 19.193C60.9753 19.193 61.3222 19.1434 61.6549 19.0443C61.9876 18.9452 62.2902 18.7983 62.5627 18.6037C62.8388 18.4054 63.0724 18.163 63.2635 17.8763C63.396 17.6788 63.5014 17.4617 63.5798 17.2249C63.6455 17.0264 63.8222 16.8782 64.0313 16.8782H64.4621C64.7368 16.8782 64.9463 17.1274 64.8696 17.3911C64.7667 17.7446 64.626 18.0709 64.4474 18.3701C64.1855 18.8089 63.8599 19.1823 63.4706 19.4903C63.0812 19.7946 62.6441 20.0265 62.1592 20.1857C61.6779 20.345 61.1629 20.4247 60.6143 20.4247C59.687 20.4247 58.8623 20.1981 58.1403 19.7451C57.4183 19.2921 56.8502 18.6479 56.4361 17.8126C56.022 16.9773 55.8149 15.9863 55.8149 14.8395C55.8149 13.6928 56.022 12.7018 56.4361 11.8665C56.8502 11.0312 57.4183 10.387 58.1403 9.934C58.8623 9.48096 59.687 9.25444 60.6143 9.25444C61.1629 9.25444 61.6779 9.33408 62.1592 9.49335C62.6441 9.65262 63.0812 9.88622 63.4706 10.1941C63.8599 10.4985 64.1855 10.8702 64.4474 11.309C64.6264 11.6066 64.7674 11.933 64.8704 12.2884Z" fill="#005456"/>
<path d="M65.9019 20.4147C65.6582 20.4147 65.4607 20.2172 65.4607 19.9735V9.69544C65.4607 9.45178 65.6582 9.25426 65.9019 9.25426H69.2317C70.1036 9.25426 70.8193 9.40321 71.3788 9.70111C71.9383 9.99538 72.3524 10.4005 72.6213 10.9163C72.8901 11.4322 73.0245 12.0189 73.0245 12.6765C73.0245 13.3341 72.8901 13.9172 72.6213 14.4258C72.3524 14.9344 71.9401 15.334 71.3842 15.6247C70.8284 15.9117 70.1181 16.0552 69.2535 16.0552H66.643C66.3993 16.0552 66.2018 15.8576 66.2018 15.614V15.2757C66.2018 15.032 66.3993 14.8345 66.643 14.8345H69.2099C69.8057 14.8345 70.2853 14.7473 70.6486 14.5729C71.0155 14.3985 71.2807 14.1515 71.4442 13.8318C71.6113 13.5085 71.6949 13.1234 71.6949 12.6765C71.6949 12.2297 71.6113 11.8391 71.4442 11.5049C71.2771 11.1706 71.01 10.9127 70.6431 10.7311C70.2762 10.5458 69.7912 10.4531 69.1881 10.4531H67.2533C67.0097 10.4531 66.8122 10.6507 66.8122 10.8943V19.9735C66.8122 20.2172 66.6146 20.4147 66.371 20.4147H65.9019ZM70.4526 15.4012C70.6138 15.4012 70.7621 15.4891 70.8395 15.6304L73.1027 19.7616C73.2637 20.0556 73.051 20.4147 72.7157 20.4147H72.1544C71.9922 20.4147 71.843 20.3257 71.7661 20.1829L69.5388 16.0518C69.3804 15.7578 69.5932 15.4012 69.9272 15.4012H70.4526Z" fill="#005456"/>
<path d="M73.9355 9.69544C73.9355 9.45178 74.1331 9.25426 74.3767 9.25426H75.2525C75.4316 9.25426 75.5929 9.36253 75.6608 9.52828L79.3166 18.4578C79.3316 18.4944 79.3672 18.5183 79.4068 18.5183C79.4463 18.5183 79.482 18.4944 79.497 18.4578L83.1528 9.52828C83.2207 9.36253 83.382 9.25426 83.5611 9.25426H84.4368C84.6805 9.25426 84.878 9.45178 84.878 9.69544V19.9735C84.878 20.2172 84.6805 20.4147 84.4368 20.4147H84.0549C83.8113 20.4147 83.6138 20.2172 83.6138 19.9735V12.0006C83.6138 11.9646 83.5845 11.9354 83.5485 11.9354C83.522 11.9354 83.4982 11.9514 83.4881 11.9758L80.1296 20.1414C80.0615 20.3067 79.9004 20.4147 79.7215 20.4147H79.092C78.9132 20.4147 78.752 20.3067 78.684 20.1413L75.3254 11.9758C75.3154 11.9514 75.2915 11.9354 75.2651 11.9354C75.229 11.9354 75.1998 11.9646 75.1998 12.0006V19.9735C75.1998 20.2172 75.0023 20.4147 74.7586 20.4147H74.3767C74.1331 20.4147 73.9355 20.2172 73.9355 19.9735V9.69544Z" fill="#005456"/>
<path d="M40.6889 20.5309C40.4149 20.5309 40.1927 20.3087 40.1927 20.0346V18.2333C40.1927 18.1843 40.1854 18.1356 40.1712 18.0888L40.0698 17.7558C40.0556 17.709 40.0483 17.6603 40.0483 17.6113V13.7878C40.0483 13.0317 39.8215 12.4474 39.3678 12.035C38.9142 11.6088 38.2268 11.3957 37.3057 11.3957C36.6871 11.3957 36.0753 11.492 35.4705 11.6844C35.0983 11.8056 34.7616 11.9567 34.4602 12.1378C34.1913 12.2995 33.8259 12.2302 33.6771 11.9538L33.1549 10.984C33.0395 10.7696 33.0954 10.5011 33.2997 10.3687C33.8133 10.036 34.3994 9.78032 35.058 9.6017C35.8829 9.368 36.7352 9.25114 37.615 9.25114C39.2097 9.25114 40.4401 9.63607 41.3062 10.4059C42.186 11.162 42.626 12.3374 42.626 13.9321V20.0346C42.626 20.3087 42.4038 20.5309 42.1297 20.5309H40.6889ZM36.7283 20.5309C35.9035 20.5309 35.1818 20.3934 34.5631 20.1184C33.9445 19.8297 33.4633 19.4379 33.1197 18.943C32.7897 18.4344 32.6248 17.8639 32.6248 17.2315C32.6248 16.6129 32.7691 16.0561 33.0578 15.5612C33.3602 15.0663 33.8483 14.6745 34.5219 14.3858C35.1955 14.0971 36.0891 13.9527 37.2026 13.9527H39.9026C40.1767 13.9527 40.3989 14.1749 40.3989 14.449V15.168C40.3989 15.4421 40.1767 15.6643 39.9026 15.6643H37.3882C36.5084 15.6643 35.9172 15.8086 35.6148 16.0973C35.3124 16.3723 35.1611 16.716 35.1611 17.1284C35.1611 17.5958 35.3467 17.967 35.7179 18.2419C36.0891 18.5169 36.6046 18.6543 37.2645 18.6543C37.8969 18.6543 38.4605 18.51 38.9554 18.2213C39.0349 18.1762 39.1108 18.1277 39.1833 18.0759C39.5607 17.8058 40.3131 17.8885 40.4383 18.3354C40.4663 18.4354 40.4625 18.5423 40.4202 18.6371C40.1634 19.2124 39.737 19.665 39.141 19.9947C38.5086 20.3521 37.7044 20.5309 36.7283 20.5309Z" fill="#005456"/>
<path d="M43.8856 20.5313C43.6116 20.5313 43.3894 20.3091 43.3894 20.035V9.87148C43.3894 9.59742 43.6116 9.37524 43.8856 9.37524H45.4708C45.7448 9.37524 45.967 9.59742 45.967 9.87148V20.035C45.967 20.3091 45.7448 20.5313 45.4708 20.5313H43.8856ZM44.6885 7.56059C44.2073 7.56059 43.8087 7.40937 43.4925 7.10693C43.19 6.80449 43.0388 6.44018 43.0388 6.01402C43.0388 5.5741 43.19 5.20979 43.4925 4.9211C43.8087 4.61866 44.2073 4.46744 44.6885 4.46744C45.1697 4.46744 45.5615 4.61178 45.8639 4.90048C46.1801 5.17543 46.3382 5.52598 46.3382 5.95215C46.3382 6.40581 46.187 6.79074 45.8845 7.10693C45.5821 7.40937 45.1834 7.56059 44.6885 7.56059Z" fill="#005456"/>
<path d="M47.2467 20.3865C46.9727 20.3865 46.7505 20.1643 46.7505 19.8903V9.87111C46.7505 9.59705 46.9727 9.37487 47.2467 9.37487H48.7892C49.0185 9.37487 49.2044 9.56074 49.2044 9.79003V11.5272C49.2044 11.686 48.9814 11.7214 48.9323 11.5704C48.9216 11.5376 48.9234 11.5019 48.9378 11.4706C49.2685 10.7523 49.7766 10.205 50.4623 9.82853C51.0625 9.50534 51.7839 9.31782 52.6264 9.26599C52.8999 9.24916 53.1224 9.47332 53.1224 9.74739V11.4087C53.1224 11.5592 52.9788 11.6662 52.8283 11.6639C52.8174 11.6638 52.8076 11.663 52.7968 11.6615C52.706 11.6493 52.6152 11.6432 52.5244 11.6432C51.5483 11.6432 50.7716 11.9319 50.1942 12.5093C49.6168 13.0729 49.3281 13.9184 49.3281 15.0457V19.8903C49.3281 20.1643 49.1059 20.3865 48.8319 20.3865H47.2467Z" fill="#005456"/>
<circle cx="44.6987" cy="6.0101" r="1.75532" fill="#005456"/>
</svg>
