<svg width="25" height="25" viewBox="0 0 25 25" fill="none" xmlns="http://www.w3.org/2000/svg">
<mask id="mask0_31350_675" style="mask-type:alpha" maskUnits="userSpaceOnUse" x="0" y="0" width="25" height="25">
<path d="M0 9.95999C0 4.45924 4.45924 0 9.95999 0H20.02C22.7703 0 25 2.22961 25 4.98V15.04C25 20.5408 20.5408 25 15.04 25H4.97998C2.22961 25 0 22.7703 0 20.02V9.95999Z" fill="white"/>
</mask>
<g mask="url(#mask0_31350_675)">
<path d="M0 9.99865C0 4.49456 4.46196 0.0326034 9.96605 0.0326034H20.0322C22.7842 0.0326034 25.0152 2.26357 25.0152 5.01564V15.0818C25.0152 20.5859 20.5533 25.0478 15.0492 25.0478H4.98301C2.23097 25.0478 0 22.8168 0 20.0648V9.99865Z" fill="#005456"/>
<path d="M0 9.99865C0 4.49456 4.46196 0.0326034 9.96605 0.0326034H20.0322C22.7842 0.0326034 25.0152 2.26357 25.0152 5.01564V15.0818C25.0152 20.5859 20.5533 25.0478 15.0492 25.0478H4.98301C2.23097 25.0478 0 22.8168 0 20.0648V9.99865Z" fill="#005456"/>
<path d="M19.369 0.24893L9.07059 14.3842C8.03692 15.803 7.93772 17.6972 8.81751 19.2177C9.69824 20.7398 11.3945 21.6013 13.1445 21.4152L30.5182 19.5676C31.6048 22.1652 29.7071 25.1523 26.776 25.1538L5.48699 25.1639C2.37405 25.1654 0.429931 21.7982 1.98774 19.103L12.641 0.671319C14.1134 -1.87605 17.6702 -2.01739 19.369 0.24893Z" fill="white"/>
<path d="M20.2805 8.03295L13.8495 16.3653L24.3048 14.9879L20.2805 8.03295Z" fill="white"/>
</g>
</svg>
