<svg width="22" height="22" viewBox="0 0 22 22" fill="none" xmlns="http://www.w3.org/2000/svg">
<path d="M12.7466 21.346L17.5753 8.81625C18.06 7.55864 17.7571 6.13406 16.8025 5.18128C15.8468 4.22745 14.4176 3.92562 13.1568 4.41137L0.638957 9.23414C-0.683107 7.52358 0.130673 4.93117 2.30422 4.3476L18.0909 0.109515C20.3993 -0.510203 22.5102 1.60066 21.8905 3.90909L17.6524 19.6958C17.0666 21.8776 14.4569 22.6892 12.7466 21.346Z" fill="#FF5A1F"/>
<path d="M10.5237 15.7542L13.6374 8.29669L6.15709 11.3959L10.5237 15.7542Z" fill="#FF5A1F"/>
<path d="M3.27581 13.1869L5.81031 12.2615L5.85976 12.3108L4.9325 14.8405L4.87563 14.7837L5.78311 12.3133L5.80784 12.338L3.33267 13.2437L3.27581 13.1869ZM4.06212 12.9303L4.13383 12.9081L5.20944 13.9816L5.18718 14.0532L4.06212 12.9303Z" fill="#FF5A1F"/>
<path d="M6.02661 15.9325L7.75748 14.2049L7.80693 14.2543L6.07607 15.9819L6.02661 15.9325Z" fill="#FF5A1F"/>
<path d="M7.47592 17.3791L9.20679 15.6515L9.79281 16.2364C9.93458 16.3779 10.0327 16.5218 10.0871 16.6683C10.1448 16.8147 10.1588 16.957 10.1291 17.0952C10.0994 17.2335 10.0244 17.3626 9.9041 17.4827C9.7854 17.6012 9.65601 17.676 9.5159 17.7073C9.37741 17.7369 9.23399 17.7238 9.08565 17.6678C8.94057 17.6119 8.79715 17.5131 8.6554 17.3716L8.09658 16.8139H8.14107L7.52538 17.4284L7.47592 17.3791ZM8.70486 18.6056L8.88039 17.5272L8.94223 17.5888L8.76666 18.6674L8.70486 18.6056ZM8.14603 16.809L8.14354 16.767L8.70733 17.3297C8.91009 17.5321 9.11038 17.6415 9.30817 17.6579C9.50765 17.6727 9.6898 17.5979 9.85464 17.4334C10.0211 17.2672 10.0961 17.0854 10.0797 16.8879C10.0632 16.6905 9.95355 16.4906 9.75079 16.2882L9.18703 15.7255L9.22905 15.728L8.14603 16.809Z" fill="#FF5A1F"/>
</svg>
