<svg width="16" height="16" viewBox="0 0 16 16" fill="none" xmlns="http://www.w3.org/2000/svg">
<g clip-path="url(#clip0_31503_1031)">
<path d="M7.27999 1.912C7.35335 1.78611 7.45845 1.68165 7.58478 1.60905C7.71112 1.53645 7.85428 1.49825 7.99999 1.49825C8.1457 1.49825 8.28886 1.53645 8.4152 1.60905C8.54153 1.68165 8.64663 1.78611 8.71999 1.912L10.5833 5.11067L14.202 5.89467C14.3443 5.9256 14.4761 5.9933 14.5841 6.09102C14.6921 6.18875 14.7726 6.31308 14.8176 6.45162C14.8626 6.59016 14.8705 6.73807 14.8405 6.88062C14.8105 7.02316 14.7437 7.15534 14.6467 7.264L12.18 10.0247L12.5533 13.708C12.5681 13.853 12.5445 13.9994 12.4849 14.1325C12.4254 14.2656 12.332 14.3807 12.2141 14.4664C12.0961 14.5521 11.9578 14.6053 11.8128 14.6208C11.6679 14.6363 11.5214 14.6135 11.388 14.5547L7.99999 13.0613L4.61199 14.5547C4.4786 14.6135 4.33212 14.6363 4.18716 14.6208C4.0422 14.6053 3.90385 14.5521 3.7859 14.4664C3.66796 14.3807 3.57457 14.2656 3.51504 14.1325C3.45551 13.9994 3.43193 13.853 3.44666 13.708L3.81999 10.0247L1.35332 7.26467C1.25614 7.15602 1.18916 7.02378 1.15907 6.88115C1.12897 6.73852 1.13682 6.59049 1.18182 6.45184C1.22682 6.31319 1.30741 6.18877 1.41553 6.091C1.52365 5.99323 1.65553 5.92554 1.79799 5.89467L5.41666 5.11067L7.27999 1.912Z" fill="#FACD33"/>
</g>
<defs>
<clipPath id="clip0_31503_1031">
<rect width="16" height="16" fill="white"/>
</clipPath>
</defs>
</svg>
