<svg width="20" height="20" viewBox="0 0 20 20" fill="none" xmlns="http://www.w3.org/2000/svg">
<rect x="0.5" y="0.5" width="19" height="19" rx="3.5" stroke="#5B5B5B"/>
<g clip-path="url(#clip0_31568_735)">
<path d="M5.91675 7.08333C5.91675 7.70217 6.16258 8.29566 6.60017 8.73325C7.03775 9.17083 7.63124 9.41667 8.25008 9.41667C8.86892 9.41667 9.46241 9.17083 9.9 8.73325C10.3376 8.29566 10.5834 7.70217 10.5834 7.08333C10.5834 6.46449 10.3376 5.871 9.9 5.43342C9.46241 4.99583 8.86892 4.75 8.25008 4.75C7.63124 4.75 7.03775 4.99583 6.60017 5.43342C6.16258 5.871 5.91675 6.46449 5.91675 7.08333Z" stroke="#5E5F62" stroke-width="1.05" stroke-linecap="round" stroke-linejoin="round"/>
<path d="M4.75 15.25V14.0833C4.75 13.4645 4.99583 12.871 5.43342 12.4334C5.871 11.9958 6.46449 11.75 7.08333 11.75H9.41667C10.0355 11.75 10.629 11.9958 11.0666 12.4334C11.5042 12.871 11.75 13.4645 11.75 14.0833V15.25" stroke="#5E5F62" stroke-width="1.05" stroke-linecap="round" stroke-linejoin="round"/>
<path d="M12.3333 4.82642C12.8352 4.95492 13.28 5.24682 13.5977 5.6561C13.9154 6.06537 14.0878 6.56873 14.0878 7.08683C14.0878 7.60493 13.9154 8.1083 13.5977 8.51757C13.28 8.92684 12.8352 9.21874 12.3333 9.34725" stroke="#5E5F62" stroke-width="1.05" stroke-linecap="round" stroke-linejoin="round"/>
<path d="M15.25 15.2501V14.0835C15.247 13.5685 15.0738 13.0689 14.7572 12.6627C14.4407 12.2565 13.9986 11.9664 13.5 11.8376" stroke="#5E5F62" stroke-width="1.05" stroke-linecap="round" stroke-linejoin="round"/>
</g>
<defs>
<clipPath id="clip0_31568_735">
<rect width="14" height="14" fill="white" transform="translate(3 3)"/>
</clipPath>
</defs>
</svg>
