<svg width="20" height="20" viewBox="0 0 20 20" fill="none" xmlns="http://www.w3.org/2000/svg">
<rect x="0.5" y="0.5" width="19" height="19" rx="3.5" stroke="#5B5B5B"/>
<g clip-path="url(#clip0_31568_795)">
<path d="M8.66675 10.6666C8.66675 11.0202 8.80722 11.3593 9.05727 11.6094C9.30732 11.8594 9.64646 11.9999 10.0001 11.9999C10.3537 11.9999 10.6928 11.8594 10.9429 11.6094C11.1929 11.3593 11.3334 11.0202 11.3334 10.6666C11.3334 10.313 11.1929 9.97382 10.9429 9.72378C10.6928 9.47373 10.3537 9.33325 10.0001 9.33325C9.64646 9.33325 9.30732 9.47373 9.05727 9.72378C8.80722 9.97382 8.66675 10.313 8.66675 10.6666Z" stroke="#5E5F62" stroke-width="1.2" stroke-linecap="round" stroke-linejoin="round"/>
<path d="M7.33325 16V15.3333C7.33325 14.9797 7.47373 14.6406 7.72378 14.3905C7.97383 14.1405 8.31296 14 8.66659 14H11.3333C11.6869 14 12.026 14.1405 12.2761 14.3905C12.5261 14.6406 12.6666 14.9797 12.6666 15.3333V16" stroke="#5E5F62" stroke-width="1.2" stroke-linecap="round" stroke-linejoin="round"/>
<path d="M12 5.33333C12 5.68696 12.1405 6.02609 12.3905 6.27614C12.6406 6.52619 12.9797 6.66667 13.3333 6.66667C13.687 6.66667 14.0261 6.52619 14.2761 6.27614C14.5262 6.02609 14.6667 5.68696 14.6667 5.33333C14.6667 4.97971 14.5262 4.64057 14.2761 4.39052C14.0261 4.14048 13.687 4 13.3333 4C12.9797 4 12.6406 4.14048 12.3905 4.39052C12.1405 4.64057 12 4.97971 12 5.33333Z" stroke="#5E5F62" stroke-width="1.2" stroke-linecap="round" stroke-linejoin="round"/>
<path d="M13.3333 8.66675H14.6666C15.0202 8.66675 15.3593 8.80722 15.6094 9.05727C15.8594 9.30732 15.9999 9.64646 15.9999 10.0001V10.6667" stroke="#5E5F62" stroke-width="1.2" stroke-linecap="round" stroke-linejoin="round"/>
<path d="M5.33325 5.33333C5.33325 5.68696 5.47373 6.02609 5.72378 6.27614C5.97382 6.52619 6.31296 6.66667 6.66659 6.66667C7.02021 6.66667 7.35935 6.52619 7.60939 6.27614C7.85944 6.02609 7.99992 5.68696 7.99992 5.33333C7.99992 4.97971 7.85944 4.64057 7.60939 4.39052C7.35935 4.14048 7.02021 4 6.66659 4C6.31296 4 5.97382 4.14048 5.72378 4.39052C5.47373 4.64057 5.33325 4.97971 5.33325 5.33333Z" stroke="#5E5F62" stroke-width="1.2" stroke-linecap="round" stroke-linejoin="round"/>
<path d="M4 10.6667V10.0001C4 9.64646 4.14048 9.30732 4.39052 9.05727C4.64057 8.80722 4.97971 8.66675 5.33333 8.66675H6.66667" stroke="#5E5F62" stroke-width="1.2" stroke-linecap="round" stroke-linejoin="round"/>
</g>
<defs>
<clipPath id="clip0_31568_795">
<rect width="16" height="16" fill="white" transform="translate(2 2)"/>
</clipPath>
</defs>
</svg>
