<svg width="20" height="20" viewBox="0 0 20 20" fill="none" xmlns="http://www.w3.org/2000/svg">
<rect x="0.5" y="0.5" width="19" height="19" rx="3.5" stroke="#5B5B5B"/>
<mask id="path-2-inside-1_31568_726" fill="white">
<path d="M7.52911 15.2353H5.52941C5.12378 15.2353 4.73477 15.0741 4.44795 14.7873C4.16113 14.5005 4 14.1115 4 13.7059V4.52941C4 4.12378 4.16113 3.73477 4.44795 3.44795C4.73477 3.16113 5.12378 3 5.52941 3H11.647C12.0527 3 12.4417 3.16113 12.7285 3.44795C13.0153 3.73477 13.1764 4.12378 13.1764 4.52941V10.647"/>
</mask>
<path d="M7.52911 16.4353C8.19185 16.4353 8.72911 15.898 8.72911 15.2353C8.72911 14.5725 8.19185 14.0353 7.52911 14.0353V15.2353V16.4353ZM4 13.7059H2.8H4ZM5.52941 3V1.8V3ZM11.647 3V1.8V3ZM11.9764 10.647C11.9764 11.3098 12.5137 11.847 13.1764 11.847C13.8392 11.847 14.3764 11.3098 14.3764 10.647H13.1764H11.9764ZM7.52911 15.2353V14.0353H5.52941V15.2353V16.4353H7.52911V15.2353ZM5.52941 15.2353V14.0353C5.44204 14.0353 5.35826 14.0006 5.29648 13.9388L4.44795 14.7873L3.59942 15.6358C4.11129 16.1477 4.80552 16.4353 5.52941 16.4353V15.2353ZM4.44795 14.7873L5.29648 13.9388C5.23471 13.877 5.2 13.7932 5.2 13.7059H4H2.8C2.8 14.4297 3.08756 15.124 3.59942 15.6358L4.44795 14.7873ZM4 13.7059H5.2V4.52941H4H2.8V13.7059H4ZM4 4.52941H5.2C5.2 4.44204 5.23471 4.35826 5.29648 4.29648L4.44795 3.44795L3.59942 2.59942C3.08756 3.11129 2.8 3.80552 2.8 4.52941H4ZM4.44795 3.44795L5.29648 4.29648C5.35826 4.23471 5.44204 4.2 5.52941 4.2V3V1.8C4.80552 1.8 4.11129 2.08756 3.59942 2.59942L4.44795 3.44795ZM5.52941 3V4.2H11.647V3V1.8H5.52941V3ZM11.647 3V4.2C11.7344 4.2 11.8182 4.23471 11.88 4.29648L12.7285 3.44795L13.577 2.59942C13.0652 2.08756 12.3709 1.8 11.647 1.8V3ZM12.7285 3.44795L11.88 4.29648C11.9417 4.35826 11.9764 4.44204 11.9764 4.52941H13.1764H14.3764C14.3764 3.80552 14.0889 3.11129 13.577 2.59942L12.7285 3.44795ZM13.1764 4.52941H11.9764V10.647H13.1764H14.3764V4.52941H13.1764Z" fill="#5E5F62" mask="url(#path-2-inside-1_31568_726)"/>
<path d="M10.8823 14.4706L12.4117 16L15.4705 12.9412" stroke="#5E5F62" stroke-width="1.2" stroke-linecap="round" stroke-linejoin="round"/>
<path d="M7.05884 6.05884H10.1177" stroke="#5E5F62" stroke-width="1.37647" stroke-linecap="round" stroke-linejoin="round"/>
<path d="M7.05884 9.11768H8.58825" stroke="#5E5F62" stroke-width="1.37647" stroke-linecap="round" stroke-linejoin="round"/>
</svg>
