<svg width="20" height="20" viewBox="0 0 20 20" fill="none" xmlns="http://www.w3.org/2000/svg">
<rect x="0.5" y="0.5" width="19" height="19" rx="3.5" stroke="#5B5B5B"/>
<path fill-rule="evenodd" clip-rule="evenodd" d="M8.30213 4.23415C8.59865 4.17097 8.86425 4.40763 8.86425 4.7108C8.86425 4.96252 8.67832 5.17334 8.43293 5.22958C6.08481 5.76777 4.33325 7.87003 4.33325 10.3814C4.33325 13.3004 6.69957 15.6667 9.61859 15.6667C12.1266 15.6667 14.2265 13.9199 14.7682 11.5765C14.8249 11.3316 15.0355 11.1461 15.2869 11.1461C15.5905 11.1461 15.8272 11.4124 15.7634 11.7092C15.1541 14.5428 12.6343 16.6667 9.61859 16.6667C6.14729 16.6667 3.33325 13.8527 3.33325 10.3814C3.33325 7.36163 5.46284 4.83925 8.30213 4.23415Z" fill="#5B5B5B"/>
<mask id="mask0_31568_763" style="mask-type:alpha" maskUnits="userSpaceOnUse" x="10" y="3" width="7" height="7">
<path d="M15.3431 9.99993C16.0795 9.99993 16.6899 9.39713 16.5436 8.67546C16.4586 8.25646 16.3334 7.84559 16.169 7.44871C15.834 6.63987 15.3429 5.90494 14.7238 5.28588C14.1048 4.66683 13.3698 4.17577 12.561 3.84073C12.1642 3.67634 11.7533 3.55109 11.3343 3.46616C10.6126 3.31986 10.0098 3.93022 10.0098 4.6666V8.6666C10.0098 9.403 10.6068 9.99993 11.3431 9.99993H15.3431Z" fill="white"/>
</mask>
<g mask="url(#mask0_31568_763)">
<path d="M15.3431 9.99993C16.0795 9.99993 16.6899 9.39713 16.5436 8.67546C16.4586 8.25646 16.3334 7.84559 16.169 7.44871C15.834 6.63987 15.3429 5.90494 14.7238 5.28588C14.1048 4.66683 13.3698 4.17577 12.561 3.84073C12.1642 3.67634 11.7533 3.55109 11.3343 3.46616C10.6126 3.31986 10.0098 3.93022 10.0098 4.6666V8.6666C10.0098 9.403 10.6068 9.99993 11.3431 9.99993H15.3431Z" stroke="#5B5B5B" stroke-width="2"/>
</g>
</svg>
