<svg width="20" height="20" viewBox="0 0 20 20" fill="none" xmlns="http://www.w3.org/2000/svg">
<rect x="0.5" y="0.5" width="19" height="19" rx="3.5" stroke="#5B5B5B"/>
<g clip-path="url(#clip0_31568_785)">
<path d="M10 4.66667C10 4.84348 10.0702 5.01305 10.1953 5.13807C10.3203 5.2631 10.4899 5.33333 10.6667 5.33333C10.8435 5.33333 11.013 5.2631 11.1381 5.13807C11.2631 5.01305 11.3333 4.84348 11.3333 4.66667C11.3333 4.48986 11.2631 4.32029 11.1381 4.19526C11.013 4.07024 10.8435 4 10.6667 4C10.4899 4 10.3203 4.07024 10.1953 4.19526C10.0702 4.32029 10 4.48986 10 4.66667Z" stroke="#5E5F62" stroke-width="1.2" stroke-linecap="round" stroke-linejoin="round"/>
<path d="M6.66675 15.9999L8.66675 13.3333" stroke="#5E5F62" stroke-width="1.2" stroke-linecap="round" stroke-linejoin="round"/>
<path d="M12.6666 15.9999L11.3333 13.3333L9.33325 11.3333L9.99992 7.33325" stroke="#5E5F62" stroke-width="1.2" stroke-linecap="round" stroke-linejoin="round"/>
<path d="M6 9.99992L7.33333 7.99992L10 7.33325L12 9.33325L14 9.99992" stroke="#5E5F62" stroke-width="1.2" stroke-linecap="round" stroke-linejoin="round"/>
</g>
<defs>
<clipPath id="clip0_31568_785">
<rect width="16" height="16" fill="white" transform="translate(2 2)"/>
</clipPath>
</defs>
</svg>
